<?xml version="1.0" standalone="no"?>
<!DOCTYPE svg PUBLIC "-//W3C//DTD SVG 20010904//EN"
 "http://www.w3.org/TR/2001/REC-SVG-20010904/DTD/svg10.dtd">
<svg version="1.0" xmlns="http://www.w3.org/2000/svg"
 width="366.000000pt" height="366.000000pt" viewBox="0 0 366.000000 366.000000"
 preserveAspectRatio="xMidYMid meet">
<metadata>
Created by potrace 1.11, written by Peter Selinger 2001-2013
</metadata>
<g transform="translate(0.000000,366.000000) scale(0.100000,-0.100000)"
fill="#000000" stroke="none">
<path d="M2300 3435 c0 -12 32 -67 36 -63 4 5 -25 68 -32 68 -2 0 -4 -2 -4 -5z"/>
<path d="M2330 3434 c0 -6 14 -29 31 -50 41 -51 46 -55 24 -18 -25 45 -55 81
-55 68z"/>
<path d="M2401 3380 c0 -8 8 -34 19 -57 16 -35 16 -43 5 -43 -16 0 -20 -16 -6
-24 5 -3 11 -15 14 -26 8 -29 -8 -16 -23 20 -13 32 -29 37 -59 18 -15 -9 -28
-9 -59 0 -48 15 -158 16 -167 2 -4 -6 16 -10 52 -10 36 -1 71 -8 92 -19 l34
-18 -54 -25 c-30 -14 -66 -28 -81 -32 -15 -3 -33 -16 -39 -29 -7 -12 -23 -35
-36 -51 -25 -29 -24 -48 1 -27 23 19 28 -14 6 -42 -26 -33 -41 -142 -28 -199
11 -50 5 -104 -21 -180 -10 -29 -24 -105 -31 -168 -9 -80 -18 -121 -30 -135
-28 -33 -61 -170 -72 -303 -12 -141 -3 -244 37 -409 25 -104 37 -121 112 -162
35 -19 47 -32 46 -46 -1 -11 -5 -59 -8 -108 l-7 -88 -38 -19 c-36 -19 -275
-234 -291 -263 -6 -10 -22 -12 -71 -6 -56 7 -65 6 -80 -11 -9 -11 -21 -20 -28
-20 -8 0 -11 -27 -9 -87 l2 -88 -41 -26 c-27 -17 -62 -28 -99 -32 -40 -4 -87
-21 -157 -56 -92 -45 -186 -112 -186 -131 0 -5 -15 -31 -34 -59 -39 -58 -69
-148 -62 -189 2 -15 5 -60 5 -99 l1 -73 1325 0 1325 0 0 408 0 407 -52 32
c-29 17 -99 51 -154 76 -56 25 -117 55 -135 66 -39 24 -61 27 -53 8 2 -7 -7
-40 -22 -73 -25 -56 -35 -148 -19 -174 3 -5 2 -11 -3 -14 -4 -2 -39 55 -77
127 -37 73 -79 147 -92 165 -32 42 -77 65 -121 60 -33 -4 -34 -3 -15 11 10 9
30 24 44 34 13 9 -9 1 -50 -19 -96 -47 -106 -48 -108 -17 -1 17 5 27 18 30 10
3 16 9 13 14 -3 5 0 9 6 9 8 0 8 6 0 21 -7 11 -9 32 -5 46 3 15 0 32 -7 41
-11 13 -11 14 2 7 13 -7 13 -6 2 7 -10 13 -10 17 1 21 21 8 28 59 11 85 -20
31 -29 28 -47 -15 -8 -21 -24 -47 -34 -59 -50 -56 -66 -98 -67 -177 -1 -50 3
-70 14 -77 13 -8 12 -10 -2 -10 -10 0 -18 -6 -18 -14 0 -14 -58 -56 -76 -56
-5 0 -25 15 -44 33 -29 26 -36 40 -38 77 -1 25 -6 59 -11 76 -5 18 -5 38 1 47
5 10 5 17 0 17 -5 0 -8 9 -7 21 2 30 28 42 60 27 29 -13 32 -11 75 51 8 11 18
21 22 21 5 0 26 12 48 26 34 23 39 30 33 53 -3 14 -10 29 -16 32 -5 4 -6 13
-2 20 6 9 3 11 -9 6 -10 -4 -15 -3 -11 3 3 6 1 10 -5 10 -6 0 -4 10 6 25 8 13
13 29 9 35 -3 5 -2 10 3 10 18 0 22 -14 7 -36 -13 -20 -12 -23 1 -28 11 -4 15
-2 11 8 -3 8 3 22 14 32 19 17 26 44 11 44 -5 0 -9 13 -9 30 0 23 3 27 13 19
9 -8 11 -2 7 28 -2 21 0 58 6 83 5 25 7 46 3 47 -4 2 -5 25 -4 53 4 50 -26
136 -59 170 -16 16 -39 65 -39 81 0 6 9 8 20 4 16 -5 19 -3 13 11 -5 12 -3 15
6 9 10 -6 11 -3 2 14 -8 13 -8 21 -2 21 6 0 17 -13 26 -30 9 -16 13 -30 9 -30
-3 0 7 -15 24 -34 17 -19 33 -44 37 -55 8 -26 25 -18 25 12 0 27 -27 73 -68
114 -23 23 -27 30 -13 26 11 -3 32 -18 47 -34 31 -32 58 -41 29 -9 -25 27 -14
35 15 10 34 -30 38 -15 5 20 -23 24 -25 30 -11 30 10 0 14 4 10 12 -4 6 -8 24
-9 39 -2 15 -12 40 -24 55 -11 15 -21 32 -21 38 0 7 -21 33 -46 59 -25 26 -42
52 -39 57 4 6 1 19 -6 28 -11 14 -11 15 1 5 20 -19 29 -16 23 7 -6 24 -13 25
-37 7 -15 -11 -17 -17 -7 -35 13 -25 11 -26 -24 -10 -36 16 -32 45 8 53 17 4
37 11 42 15 17 12 56 19 49 8 -8 -13 46 -2 90 18 l31 15 -34 -7 c-23 -4 -31
-3 -27 5 4 6 2 11 -4 11 -6 0 -8 5 -5 10 10 16 -20 12 -76 -10 -58 -23 -73
-21 -33 4 14 10 28 15 31 13 2 -3 13 3 24 14 10 10 25 19 33 19 7 0 16 9 19
21 5 17 1 20 -21 19 -46 -3 -53 -1 -50 18 4 25 -10 42 -30 36 -10 -4 -13 -2
-7 3 17 14 11 51 -12 73 -13 11 -20 27 -17 35 4 8 1 15 -5 15 -6 0 -9 10 -7
23 3 19 9 22 47 21 87 -2 140 -7 145 -16 3 -4 13 -8 23 -8 10 0 36 -13 57 -28
22 -16 51 -32 65 -35 14 -4 26 -13 26 -22 0 -8 -2 -15 -3 -15 -9 0 -61 26 -75
37 -9 8 -26 16 -39 18 -22 4 -22 4 -5 -15 10 -11 14 -20 9 -20 -22 -1 24 -20
48 -20 14 0 40 -11 56 -25 l30 -25 -29 -31 c-16 -17 -29 -35 -29 -40 0 -5 -7
-9 -16 -9 -8 0 -13 -4 -10 -9 3 -5 -4 -21 -16 -37 -18 -23 -19 -27 -5 -21 21
8 21 0 2 -37 -8 -16 -18 -65 -21 -110 -5 -80 -5 -82 35 -161 23 -44 41 -86 41
-93 0 -9 6 -12 15 -8 13 4 14 2 5 -14 -6 -11 -8 -20 -5 -20 3 0 1 -9 -5 -20
-6 -11 -20 -20 -31 -20 -12 0 -17 -4 -13 -11 3 -6 23 -9 43 -7 l37 3 -15 -27
c-9 -16 -22 -26 -28 -23 -17 6 -16 -5 2 -29 9 -12 22 -17 35 -13 17 4 20 0 20
-26 1 -27 2 -29 11 -14 6 9 13 16 17 13 4 -2 8 7 9 21 0 14 9 33 18 42 17 15
17 15 9 -4 -4 -11 -7 -41 -6 -66 1 -32 -3 -51 -14 -60 -13 -11 -14 -9 -9 17
l7 29 -21 -25 c-22 -27 -28 -45 -10 -34 8 5 8 1 0 -13 -7 -14 -7 -23 0 -30 8
-8 7 -13 -1 -18 -7 -4 -16 -1 -21 6 -6 11 -9 10 -15 -4 -8 -22 3 -50 17 -41 6
3 15 0 20 -7 9 -14 19 -9 23 13 2 7 6 21 10 30 4 9 5 21 2 27 -9 15 14 25 27
12 7 -7 12 -26 13 -44 1 -18 5 -42 9 -54 5 -16 2 -24 -16 -33 -19 -11 -25 -10
-38 7 -9 11 -35 24 -59 30 l-42 11 -29 -42 c-15 -22 -33 -51 -40 -63 -20 -39
-4 -25 26 22 19 32 33 43 43 39 8 -4 30 -12 48 -18 32 -11 39 -30 11 -32 -26
-2 -28 -4 -19 -35 6 -21 6 -39 -2 -52 -11 -22 -19 -162 -10 -186 4 -12 7 -11
16 1 6 8 21 20 33 26 21 12 83 94 83 111 0 5 7 14 15 21 8 7 15 23 15 36 0 53
60 180 105 224 19 19 35 38 35 44 0 5 -31 -21 -69 -57 -100 -97 -101 -82 -1
18 l85 85 0 69 c0 57 -4 75 -23 101 -21 28 -22 31 -5 28 22 -4 44 -65 46 -134
l2 -50 20 25 c10 14 24 30 30 34 7 6 6 10 -3 14 -9 3 -7 12 8 33 11 16 23 42
26 58 4 17 14 39 23 49 9 10 17 25 19 33 2 8 7 16 12 18 5 2 6 10 3 19 -4 10
-2 14 4 10 13 -8 27 74 18 102 -3 10 -1 38 6 62 6 24 10 53 10 64 0 11 0 34 0
50 1 44 -4 106 -16 173 -5 26 -3 32 12 33 14 0 13 2 -4 9 -23 9 -32 30 -13 30
6 0 5 10 -2 25 -6 14 -15 25 -20 25 -5 0 -7 14 -3 30 5 21 2 39 -9 55 -9 13
-16 31 -16 40 0 8 -6 15 -14 15 -8 0 -17 6 -19 13 -4 9 -8 8 -17 -3 -10 -12
-11 -11 -7 8 3 12 1 20 -4 16 -5 -3 -9 -12 -9 -20 0 -8 -4 -14 -10 -14 -5 0
-10 7 -10 15 0 9 -6 12 -16 8 -14 -5 -15 -3 -5 16 7 12 10 32 8 44 l-4 22 -2
-22 c0 -13 -6 -23 -12 -23 -5 0 -9 8 -7 18 3 21 -21 72 -33 72 -5 0 -6 7 -3
15 4 8 2 15 -4 15 -19 0 -20 -27 -1 -38 10 -7 19 -17 19 -23 0 -20 -49 27 -55
54 -4 15 -10 25 -14 22 -5 -2 -19 7 -31 20 -13 14 -27 25 -30 25 -4 0 -24 16
-45 35 -20 20 -42 34 -49 32 -6 -2 -20 0 -31 6 -11 6 -56 12 -100 13 -44 1
-107 7 -139 13 -33 6 -69 11 -80 10 -21 0 -21 -1 -1 -10 14 -6 7 -7 -25 -4
-25 3 -99 7 -164 9 l-119 4 -23 43 c-13 24 -23 37 -23 29z m691 -146 c21 -15
36 -29 33 -32 -3 -3 -14 3 -24 12 -11 10 -37 24 -58 32 -31 10 -33 13 -14 14
14 0 42 -12 63 -26z m148 -100 c0 -3 -12 2 -27 10 -16 8 -36 17 -45 20 -10 3
-18 12 -18 21 0 12 10 9 45 -15 25 -17 45 -33 45 -36z m-676 -38 c1 -8 8 -22
16 -32 8 -11 2 -8 -13 5 -15 14 -25 27 -22 29 2 3 -4 17 -15 32 -11 16 -20 31
-20 35 0 12 52 -54 54 -69z m620 28 c32 -3 36 -5 36 -14 0 -6 -8 -10 -17 -8
-12 2 -17 -3 -15 -12 1 -8 -9 -2 -23 13 -28 32 -34 57 -9 36 9 -8 22 -14 28
-15z m91 -42 c-3 -3 -11 0 -18 7 -9 10 -8 11 6 5 10 -3 15 -9 12 -12z m-484
-29 c13 -16 12 -17 -3 -4 -17 13 -22 21 -14 21 2 0 10 -8 17 -17z m384 6 c11
-17 -1 -21 -15 -4 -8 9 -8 15 -2 15 6 0 14 -5 17 -11z m-185 -71 c0 -13 -17
-9 -29 5 -6 8 -8 17 -4 20 3 4 2 12 -3 20 -5 7 1 1 13 -13 13 -14 23 -28 23
-32z m170 40 c0 -5 8 -8 18 -7 35 3 47 -2 23 -12 l-24 -9 23 -25 c13 -14 29
-25 36 -25 7 0 15 -4 18 -9 7 -10 -29 -8 -56 4 -10 4 -18 15 -18 25 0 10 -11
28 -25 41 -28 27 -32 41 -10 33 8 -4 15 -10 15 -16z m166 1 c19 -22 19 -22 -3
-8 -13 8 -23 17 -23 21 0 12 6 9 26 -13z m-296 -49 c30 -43 18 -37 -16 7 -15
20 -23 33 -16 29 6 -3 21 -20 32 -36z m320 -22 c0 -5 -7 -3 -15 6 -8 8 -15 18
-15 22 0 3 7 1 15 -6 8 -7 15 -17 15 -22z m-1230 4 c0 -5 -7 -17 -15 -28 -14
-18 -14 -17 -4 9 12 27 19 34 19 19z m1327 -38 c-3 -3 -12 -4 -19 -1 -8 3 -5
6 6 6 11 1 17 -2 13 -5z m-100 -90 c-7 -7 -37 7 -37 17 0 6 9 5 21 -1 11 -7
19 -14 16 -16z m-217 6 c8 -5 11 -10 5 -10 -5 0 -17 5 -25 10 -8 5 -10 10 -5
10 6 0 17 -5 25 -10z m105 -18 c-3 -3 -11 0 -18 7 -9 10 -8 11 6 5 10 -3 15
-9 12 -12z m-180 -112 c-3 -5 -10 -10 -16 -10 -5 0 -9 5 -9 10 0 6 7 10 16 10
8 0 12 -4 9 -10z m-17 -37 c-2 -10 -11 -19 -21 -21 -16 -3 -17 -1 -5 17 16 25
31 27 26 4z m152 -7 c0 -2 -7 -9 -15 -16 -12 -10 -15 -10 -15 4 0 9 7 16 15
16 8 0 15 -2 15 -4z m75 -25 c-3 -6 -11 -11 -17 -11 -6 0 -6 6 2 15 14 17 26
13 15 -4z m-65 -1 c0 -5 -5 -10 -11 -10 -5 0 -7 5 -4 10 3 6 8 10 11 10 2 0 4
-4 4 -10z m-30 -20 c0 -5 -5 -10 -11 -10 -5 0 -7 5 -4 10 3 6 8 10 11 10 2 0
4 -4 4 -10z m45 -20 c-26 -11 -35 -12 -35 -2 0 4 12 8 28 9 23 1 24 1 7 -7z
m105 0 c0 -5 -5 -10 -11 -10 -5 0 -7 5 -4 10 3 6 8 10 11 10 2 0 4 -4 4 -10z
m-100 -29 c0 -5 -14 -20 -31 -32 -31 -22 -31 -22 -20 -1 6 12 19 26 29 31 21
13 22 13 22 2z m87 -34 c18 -1 19 -5 11 -29 -13 -35 -21 -37 -12 -2 l7 26 -27
-17 c-23 -16 -26 -16 -26 -1 0 9 4 16 10 16 5 0 7 8 4 18 -4 12 -3 13 3 4 6
-7 19 -14 30 -15z m-82 -7 c-10 -11 -21 -18 -23 -15 -3 3 3 12 14 20 27 20 30
18 9 -5z m3 -47 c-14 -54 -21 -61 -28 -33 -5 18 0 32 14 47 12 13 22 23 23 23
1 0 -3 -17 -9 -37z m126 12 c-4 -9 -1 -15 7 -15 7 0 -1 -15 -17 -32 -43 -47
-64 -83 -64 -112 0 -14 -4 -28 -10 -31 -5 -3 -10 -1 -10 5 0 7 -7 10 -15 6
-22 -8 -19 -2 21 50 19 26 33 53 30 60 -3 8 -2 13 2 12 14 -5 52 36 41 43 -7
4 -8 12 -5 18 11 16 26 13 20 -4z m76 1 c0 -2 -8 -10 -17 -17 -16 -13 -17 -12
-4 4 13 16 21 21 21 13z m-50 -39 c0 -2 -12 -14 -27 -28 -24 -22 -24 -13 0 19
8 11 27 17 27 9z m54 -32 c-4 -8 -11 -15 -16 -15 -6 0 -5 6 2 15 7 8 14 15 16
15 2 0 1 -7 -2 -15z m-84 -60 c-7 -8 -17 -15 -23 -15 -5 0 -3 8 6 18 10 10 18
25 18 33 1 8 3 7 6 -4 3 -10 -1 -24 -7 -32z m-31 -50 c-15 -8 -29 -21 -33 -30
-3 -8 -11 -15 -18 -15 -6 0 1 14 17 30 16 17 36 30 44 30 10 -1 6 -6 -10 -15z
m51 -9 c0 -3 -4 -8 -10 -11 -5 -3 -10 -1 -10 4 0 6 5 11 10 11 6 0 10 -2 10
-4z m59 -108 c-14 -25 -16 -23 -11 13 3 21 7 27 13 18 4 -7 3 -21 -2 -31z
m-1126 -26 c9 -10 23 -34 32 -55 8 -20 20 -37 25 -37 17 0 11 -17 -7 -25 -11
-4 -23 1 -33 12 -8 11 -22 22 -31 25 -25 10 -33 98 -9 98 4 0 14 -8 23 -18z
m-11 -124 c-15 -15 -26 -4 -18 18 5 13 9 15 18 6 9 -9 9 -15 0 -24z m869 -21
c-10 -9 -11 -8 -5 6 3 10 9 15 12 12 3 -3 0 -11 -7 -18z m115 -32 c5 -27 0
-48 -21 -90 -14 -30 -31 -55 -36 -55 -13 0 -12 5 11 47 22 41 25 70 11 92 -11
17 5 55 19 46 5 -3 12 -21 16 -40z m-806 -304 c30 -22 39 -80 16 -104 -9 -9
-13 -22 -10 -30 3 -9 -3 -20 -15 -26 -27 -15 -34 -14 -27 5 3 8 2 12 -4 9 -6
-3 -10 5 -10 19 0 14 -4 26 -8 26 -10 0 -8 27 3 53 4 10 1 27 -8 41 -9 13 -13
27 -10 30 9 9 43 -2 73 -23z m-200 -23 c-3 -3 5 -17 18 -31 l22 -24 -22 3
c-13 1 -26 3 -29 3 -6 1 -29 47 -29 57 0 3 10 4 23 2 12 -2 20 -6 17 -10z
m122 -158 c20 -34 13 -38 -21 -11 -13 10 -21 23 -17 30 11 17 20 13 38 -19z
m438 -280 c0 -5 -2 -10 -4 -10 -3 0 -8 5 -11 10 -3 6 -1 10 4 10 6 0 11 -4 11
-10z m-59 -113 c-10 -9 -11 -8 -5 6 3 10 9 15 12 12 3 -3 0 -11 -7 -18z m119
14 c0 -5 -15 -20 -32 -32 l-33 -22 30 31 c35 35 35 35 35 23z m-887 -216 c9
-16 26 -57 37 -90 17 -52 18 -61 6 -74 -13 -12 -14 -12 -9 7 3 13 1 22 -6 22
-6 0 -8 7 -4 17 4 10 2 14 -4 10 -6 -4 -16 0 -23 8 -9 10 -9 15 -1 15 19 0 12
50 -11 74 -27 28 -48 61 -48 77 0 16 43 -29 63 -66z m674 -17 c-3 -8 -6 -5 -6
6 -1 11 2 17 5 13 3 -3 4 -12 1 -19z m-953 -35 c-32 -55 -44 -72 -44 -57 0 12
57 104 65 104 3 0 -6 -21 -21 -47z m253 17 c6 -12 9 -30 5 -38 -4 -12 -9 -11
-24 8 -21 25 -24 64 -5 58 6 -3 17 -15 24 -28z m1188 -59 c-8 -51 -21 -60 -37
-26 -10 22 -8 28 12 50 29 31 34 27 25 -24z m-1231 -164 c-13 -16 -24 -33 -24
-39 0 -6 -3 -8 -6 -5 -4 4 4 29 17 57 18 38 25 46 30 33 4 -11 -3 -29 -17 -46z
m880 1 c-15 -25 -89 -108 -96 -108 -17 0 -6 20 38 69 42 46 76 69 58 39z m-94
-62 c0 -3 -4 -8 -10 -11 -5 -3 -10 -1 -10 4 0 6 5 11 10 11 6 0 10 -2 10 -4z
m-1498 -79 c20 -12 45 -33 56 -47 28 -37 55 -97 49 -112 -3 -8 -6 -6 -6 5 -1
26 -70 127 -86 127 -16 0 -75 49 -60 50 6 0 27 -10 47 -23z m1398 -19 c0 -4
-13 -14 -29 -22 -16 -9 -42 -29 -57 -46 -38 -40 -58 -40 -50 0 6 33 4 35 -25
20 -19 -11 -24 -4 -11 16 16 25 172 54 172 32z m-1436 -218 c31 -59 69 -177
63 -193 -3 -6 -6 -2 -6 10 -1 12 -5 24 -10 27 -5 3 -12 18 -15 33 -10 43 -87
193 -96 188 -8 -5 -20 18 -20 38 0 18 58 -53 84 -103z m989 50 c36 -27 56 -53
83 -109 19 -40 34 -75 32 -77 -2 -2 -31 34 -63 79 -33 45 -75 100 -95 121 -38
43 -30 40 43 -14z m225 -13 c-11 -32 -23 -56 -25 -54 -2 3 6 30 18 61 11 32
23 56 25 54 2 -2 -6 -30 -18 -61z m-37 -94 c-12 -20 -14 -14 -5 12 4 9 9 14
11 11 3 -2 0 -13 -6 -23z"/>
<path d="M2430 1611 c0 -6 5 -13 10 -16 6 -3 10 1 10 9 0 9 -4 16 -10 16 -5 0
-10 -4 -10 -9z"/>
<path d="M2361 3327 c7 -15 16 -27 21 -27 14 0 9 16 -13 36 -21 19 -21 19 -8
-9z"/>
<path d="M3232 3213 c9 -10 18 -25 21 -33 4 -10 6 -11 6 -2 1 8 6 10 14 6 6
-4 1 5 -12 19 -27 29 -54 38 -29 10z"/>
<path d="M3489 3033 c-10 -25 -12 -26 -18 -9 -8 20 -8 20 -13 0 -3 -10 -2 -28
2 -39 7 -19 7 -19 18 2 18 32 32 73 27 73 -3 0 -10 -12 -16 -27z"/>
<path d="M2845 2640 c-8 -13 5 -13 25 0 13 8 13 10 -2 10 -9 0 -20 -4 -23 -10z"/>
<path d="M2865 2088 c2 -20 8 -45 14 -55 9 -15 10 -12 11 18 0 19 -6 44 -14
55 -13 17 -14 16 -11 -18z"/>
<path d="M182 1961 c-2 -73 1 -132 6 -135 14 -8 21 44 22 149 2 118 2 115 -12
115 -10 0 -14 -34 -16 -129z"/>
<path d="M174 1780 c-4 -17 -14 -35 -24 -40 -10 -5 -25 -25 -34 -43 -18 -40
-7 -91 26 -118 19 -15 19 -23 9 -355 -6 -187 -11 -363 -11 -392 0 -47 -3 -54
-25 -62 -35 -13 -43 -42 -47 -157 l-3 -98 45 -5 c40 -4 45 -8 45 -30 0 -24 -2
-25 -77 -28 l-78 -3 0 -100 0 -100 47 3 48 3 1 78 c2 85 13 109 39 87 14 -11
15 -26 10 -84 -4 -39 -7 -117 -8 -174 l-2 -102 67 0 68 0 1 38 c4 185 10 324
14 360 6 40 14 47 50 43 7 0 9 26 7 72 -3 63 -7 74 -29 91 -19 15 -22 21 -11
27 18 12 -7 29 -43 29 -15 0 -31 6 -37 12 -6 8 -13 170 -17 414 l-7 401 23 17
24 16 -33 12 c-36 14 -45 48 -13 48 52 0 58 26 19 82 -10 14 -18 38 -18 51 0
38 -19 43 -26 7z"/>
<path d="M3078 1313 c-11 -3 -16 -14 -16 -33 l1 -29 29 17 c16 9 36 25 45 35
15 16 14 17 -13 16 -16 -1 -37 -3 -46 -6z"/>
<path d="M580 1012 c0 -4 5 -13 12 -20 9 -9 8 -15 -4 -24 -14 -11 -17 -40 -20
-176 -3 -142 -5 -165 -20 -176 -14 -10 -18 -27 -18 -69 l0 -56 48 6 c52 6 78
-10 66 -40 -5 -13 -21 -16 -87 -15 -45 1 -86 5 -92 9 -5 4 -22 5 -37 2 -24 -4
-26 -8 -17 -24 5 -11 8 -27 5 -37 -3 -9 -8 -88 -11 -174 l-7 -158 30 0 c28 0
30 2 35 47 2 27 4 104 5 172 1 129 8 155 38 130 14 -11 16 -26 11 -94 -3 -45
-7 -86 -8 -91 -1 -5 -1 -44 0 -86 l1 -78 75 0 75 0 0 75 0 74 -57 3 c-71 4
-69 23 2 23 l50 0 5 85 c5 77 7 85 25 85 19 0 20 -6 17 -173 l-2 -172 134 1
133 1 6 91 c9 128 13 150 37 198 12 23 19 50 17 60 -4 13 0 19 13 19 10 0 22
6 28 13 5 7 13 122 17 265 l7 252 -91 0 -91 0 0 -52 c-1 -108 -12 -283 -18
-289 -4 -4 -22 -5 -39 -2 l-33 5 0 94 c0 83 -2 95 -20 106 -16 10 -20 24 -20
64 0 34 -5 56 -15 64 -8 7 -15 21 -15 31 0 17 -8 19 -65 19 -37 0 -65 4 -65
10 0 6 -9 10 -20 10 -11 0 -20 -4 -20 -8z m196 -380 c-15 -15 -46 -10 -46 7 0
5 8 17 17 26 16 16 17 16 30 -1 11 -15 11 -20 -1 -32z m162 -335 c2 -10 -3
-17 -12 -17 -18 0 -29 16 -21 31 9 14 29 6 33 -14z m-11 -199 c-3 -8 -6 -5 -6
6 -1 11 2 17 5 13 3 -3 4 -12 1 -19z"/>
<path d="M18 223 c-14 -3 -18 -15 -18 -49 l0 -44 45 0 45 0 0 40 c0 29 -5 42
-19 50 -20 10 -25 11 -53 3z m42 -54 c0 -20 -24 -26 -35 -9 -4 6 -4 17 -1 25
7 20 36 7 36 -16z"/>
</g>
</svg>
